<svg viewBox="0 0 320 132" fill="none" stroke-linecap="square" stroke-miterlimit="10" xmlns="http://www.w3.org/2000/svg">
  <clipPath id="a">
    <path d="M0 0h320v132H0V0z"/>
  </clipPath>
  <g clip-path="url(#a)">
    <path fill="none" d="M0 0h320v132H0z"/>
    <path fill="none" d="M-9.906 14.115h339.81v122.268H-9.905z"/>
    <path fill="#000" d="M46.18 86.945q-2.953 0-5.703-1.015-2.75-1.031-4.61-2.64l-1.656 3.265h-8.39l7.75-48.828h9.469l-2.625 16.64q2.171-1.156 4.703-1.859 2.53-.703 4.39-.703 5.047 0 7.922 3.14 2.89 3.125 2.89 8.891 0 2.11-.827 7.938-1.157 7.234-4.61 11.203-3.453 3.968-8.703 3.968zm-2.953-7.625q2.953 0 4.703-2.328 1.766-2.343 2.531-7.718.329-2.563.329-3.97 0-5.89-4.422-5.89-1.657 0-3.547.485-1.89.484-3.5 1.25l-2.485 16.125q1.344 1.03 2.813 1.546 1.469.5 3.578.5zm30.278 7.625q-4.094 0-6.719-2.968-2.625-2.985-2.625-8.875 0-2.89.766-7.172 1.343-8.25 5.656-12.188 4.328-3.937 12.515-3.937 4.297 0 8.188 1.125 3.906 1.11 6.281 2.906l-4.86 30.719h-8.39l-.515-3.453q-1.594 1.406-4.579 2.625-2.968 1.218-5.718 1.218zm4.61-7.625q1.858 0 3.39-.64 1.531-.64 3.203-1.719l2.625-16.516q-.578-.39-1.89-.703-1.313-.328-2.845-.328-3.78 0-5.703 2.281-1.922 2.266-2.687 6.938-.516 3.203-.516 4.734 0 2.75 1.078 4.36 1.094 1.593 3.344 1.593zm26.871-27.14h8.453l.39 4.422q2.11-2.235 4.376-3.516 2.281-1.281 5.031-1.281 2.172 0 3.453.375l-1.468 9.484q-2.438-.14-3.97-.14-2.624 0-4.843.78-2.203.766-3.797 1.985l-3.531 22.266h-9.531l5.437-34.375zm29.129-14.453h9.468l-4.218 26.625q9.406-1.61 12.156-12.172h9.531q-3.266 11.656-11 15.812l9.016 18.563h-9.719l-7.234-15.688q-2.172.578-3.907.578l-2.375 15.11h-9.468l7.75-48.828zm33.469 15.797q4.86-.829 8.86-1.266 4-.453 8.421-.453 6.016 0 8.672 3.015 2.656 3 2.656 9.266 0 2.89-.64 6.86-1.281 8-5.438 12-4.156 4-10.562 4-4.922 0-7.547-1.344l-2.563 16.125h-9.468l7.609-48.203zm10.875 25.343q3.453 0 5.313-2.265 1.859-2.266 2.75-7.453.328-2.75.328-3.454 0-3.203-1.094-4.734-1.078-1.547-3.516-1.547l-6.14.063-2.953 18.5q1.343.515 2.5.703 1.156.187 2.812.187zm31.045 8.078q-4.093 0-6.718-2.968-2.625-2.985-2.625-8.875 0-2.89.765-7.172 1.344-8.25 5.657-12.188 4.328-3.937 12.515-3.937 4.297 0 8.188 1.125 3.906 1.11 6.281 2.906l-4.86 30.719h-8.39l-.516-3.453q-1.593 1.406-4.578 2.625-2.969 1.218-5.719 1.218zm4.61-7.625q1.86 0 3.39-.64 1.532-.64 3.204-1.719l2.625-16.516q-.579-.39-1.891-.703-1.313-.328-2.844-.328-3.781 0-5.703 2.281-1.922 2.266-2.687 6.938-.516 3.203-.516 4.734 0 2.75 1.078 4.36 1.094 1.593 3.344 1.593zm35.013 7.625q-8.579 0-13.704-1.546l.891-5.563h14.984q3.579 0 4.032-2.5l.187-1.406.063-.766q0-1.922-2.688-1.922h-5.11q-4.484 0-7.14-1.718-2.656-1.735-2.656-5.25 0-1.547.25-2.891l.39-2.422q.766-4.36 4-6.75 3.235-2.406 10.141-2.406 3.016 0 6.813.453 3.812.437 6.312 1.14l-.969 5.579h-14.015q-1.86 0-2.688.61-.828.593-1.156 2.015l-.187.953q-.188.828-.188 1.344 0 .89.672 1.312.672.422 2.266.422h5.765q4.094 0 6.547 1.828 2.469 1.813 2.469 5.016 0 1.281-.188 2.75l-.437 3.015q-.719 4.594-4.438 6.657-3.703 2.046-10.218 2.046zm32.768 0q-8.579 0-13.704-1.546l.891-5.563h14.984q3.579 0 4.032-2.5l.187-1.406.063-.766q0-1.922-2.688-1.922h-5.11q-4.484 0-7.14-1.718-2.656-1.735-2.656-5.25 0-1.547.25-2.891l.39-2.422q.766-4.36 4-6.75 3.235-2.406 10.141-2.406 3.016 0 6.813.453 3.812.437 6.312 1.14l-.969 5.579h-14.015q-1.86 0-2.688.61-.828.593-1.156 2.015l-.187.953q-.188.828-.188 1.344 0 .89.672 1.312.672.422 2.266.422h5.765q4.094 0 6.547 1.828 2.469 1.813 2.469 5.016 0 1.281-.188 2.75l-.437 3.015q-.719 4.594-4.438 6.657-3.703 2.046-10.218 2.046z"/>
  </g>
</svg>
